<?xml version="1.0" encoding="utf-8"?>
<!-- Generator: Adobe Illustrator 26.3.1, SVG Export Plug-In . SVG Version: 6.00 Build 0)  -->
<svg version="1.1" id="Layer_1" xmlns="http://www.w3.org/2000/svg" xmlns:xlink="http://www.w3.org/1999/xlink" x="0px" y="0px"
	 viewBox="0 0 35 35" style="enable-background:new 0 0 35 35;" xml:space="preserve">
<g>
	<path d="M24.3,29.7h-2.2c-1.3,0-2.4-1.1-2.4-2.4v-3.5c0-0.3-0.3-0.6-0.6-0.6h-3.2c-0.3,0-0.6,0.3-0.6,0.6v3.5c0,0.1,0,0.2,0,0.3
		c-0.1,1.2-1.2,2.1-2.4,2.1h-2.2c-2.7,0-4.9-2.2-4.9-4.9V15c0-1.2,0.5-2.2,1.5-2.9l7.3-5.9c1.7-1.3,4-1.3,5.7,0l7.4,5.9
		c0.9,0.7,1.4,1.8,1.5,2.9v9.8C29.2,27.5,27,29.7,24.3,29.7z M19.2,21.2c1.4,0,2.6,1.2,2.6,2.6v3.5c0,0.2,0.2,0.4,0.4,0.4h2.1
		c1.6,0,2.9-1.3,2.9-2.9V15c0-0.5-0.3-1-0.7-1.3l-7.4-5.9c-0.9-0.7-2.3-0.7-3.2,0l-7.4,5.9C8,14,7.8,14.5,7.8,15.1v9.8
		c0,1.6,1.3,2.9,2.9,2.9h2.2c0.2,0,0.4-0.2,0.4-0.4c0-0.1,0-0.1,0-0.2V24c0-1.4,1.2-2.8,2.6-2.8L19.2,21.2L19.2,21.2z"/>
</g>
</svg>
