<?xml version="1.0" encoding="utf-8"?>
<!-- Generator: Adobe Illustrator 26.3.1, SVG Export Plug-In . SVG Version: 6.00 Build 0)  -->
<svg version="1.1" id="Layer_1" xmlns="http://www.w3.org/2000/svg" xmlns:xlink="http://www.w3.org/1999/xlink" x="0px" y="0px"
	 viewBox="0 0 35 35" style="enable-background:new 0 0 35 35;" xml:space="preserve">
<g>
	<path d="M19.4,17.5l8.3-8.3C27.9,9,28,8.7,28,8.3c0-0.3-0.1-0.7-0.4-0.9C27.4,7.1,27,7,26.7,7c-0.3,0-0.7,0.1-0.9,0.4l-8.3,8.3
		L9.2,7.4C9,7.1,8.7,7,8.3,7C8,7,7.6,7.1,7.4,7.4C7.1,7.6,7,8,7,8.3C7,8.7,7.1,9,7.4,9.2l8.3,8.3l-8.3,8.3C7.1,26,7,26.3,7,26.7
		c0,0.3,0.1,0.7,0.4,0.9C7.6,27.9,8,28,8.3,28c0.3,0,0.7-0.1,0.9-0.4l8.3-8.3l8.3,8.3c0.2,0.2,0.6,0.4,0.9,0.4
		c0.3,0,0.7-0.1,0.9-0.4c0.2-0.2,0.4-0.6,0.4-0.9c0-0.3-0.1-0.7-0.4-0.9L19.4,17.5z"/>
</g>
</svg>
