<?xml version="1.0" encoding="utf-8"?>
<!-- Generator: Adobe Illustrator 26.3.1, SVG Export Plug-In . SVG Version: 6.00 Build 0)  -->
<svg version="1.1" id="Layer_1" xmlns="http://www.w3.org/2000/svg" xmlns:xlink="http://www.w3.org/1999/xlink" x="0px" y="0px"
	 viewBox="0 0 35 35" style="enable-background:new 0 0 35 35;" xml:space="preserve">
<g>
	<g>
		<path d="M17.5,31c-2.4,0-9.9,0-9.9-4.7c0-3.6,4.5-6.7,9.9-6.7c5.3,0,9.9,3.1,9.9,6.7C27.4,31,19.9,31,17.5,31z M17.5,21.5
			c-4.5,0-7.9,2.5-7.9,4.7c0,1.8,2.6,2.7,7.9,2.7c5.2,0,7.9-0.9,7.9-2.8C25.4,24,22,21.5,17.5,21.5z"/>
	</g>
	<g>
		<path d="M17.5,17.4L17.5,17.4c-1.8,0-3.5-0.7-4.7-2c-1.3-1.3-1.9-2.9-1.9-4.7c0-3.7,3-6.7,6.7-6.7c3.7,0,6.7,3,6.7,6.7
			C24.2,14.4,21.2,17.4,17.5,17.4z M17.5,15.4c2.6,0,4.7-2.1,4.7-4.7c0-2.6-2.1-4.7-4.7-4.7c-2.6,0-4.7,2.1-4.7,4.7
			c0,1.2,0.5,2.4,1.4,3.3C15,14.9,16.2,15.4,17.5,15.4L17.5,15.4z"/>
	</g>
</g>
</svg>
