<?xml version="1.0" encoding="utf-8"?>
<!-- Generator: Adobe Illustrator 26.3.1, SVG Export Plug-In . SVG Version: 6.00 Build 0)  -->
<svg version="1.1" id="Layer_1" xmlns="http://www.w3.org/2000/svg" xmlns:xlink="http://www.w3.org/1999/xlink" x="0px" y="0px"
	 viewBox="0 0 35 35" style="enable-background:new 0 0 35 35;" xml:space="preserve">
<g>
	<path d="M28.8,26.8l-4.6-4.6c1.6-2.1,2.3-4.7,2-7.4c-0.3-2.6-1.5-5-3.5-6.8c-2-1.7-4.6-2.6-7.2-2.5c-2.6,0.1-5.1,1.2-7,3
		c-1.9,1.9-2.9,4.4-3,7c-0.1,2.6,0.8,5.2,2.5,7.2c1.7,2,4.1,3.3,6.8,3.5c2.6,0.3,5.2-0.4,7.4-2l4.6,4.6c0.3,0.3,0.7,0.4,1,0.4
		s0.8-0.2,1-0.4c0.3-0.3,0.4-0.7,0.4-1C29.2,27.4,29.1,27,28.8,26.8L28.8,26.8z M15.9,23.4c-1.5,0-2.9-0.4-4.1-1.2
		c-1.2-0.8-2.2-2-2.7-3.3c-0.6-1.4-0.7-2.8-0.4-4.3c0.3-1.4,1-2.8,2-3.8s2.4-1.7,3.8-2c1.4-0.3,2.9-0.1,4.3,0.4
		c1.4,0.6,2.5,1.5,3.3,2.7c0.8,1.2,1.2,2.7,1.2,4.1c0,2-0.8,3.8-2.2,5.2C19.8,22.6,17.9,23.4,15.9,23.4z"/>
</g>
</svg>
