<?xml version="1.0" encoding="utf-8"?>
<!-- Generator: Adobe Illustrator 26.3.1, SVG Export Plug-In . SVG Version: 6.00 Build 0)  -->
<svg version="1.1" id="Layer_1" xmlns="http://www.w3.org/2000/svg" xmlns:xlink="http://www.w3.org/1999/xlink" x="0px" y="0px"
	 viewBox="0 0 35 35" style="enable-background:new 0 0 35 35;" xml:space="preserve">
<style type="text/css">
	.st0{clip-path:url(#SVGID_00000036248134381053607400000011303924400865626033_);}
</style>
<g>
	<defs>
		<rect id="SVGID_1_" x="5.8" y="5.8" width="23.5" height="23.5"/>
	</defs>
	<clipPath id="SVGID_00000170276292989937804680000015899992953094483845_">
		<use xlink:href="#SVGID_1_"  style="overflow:visible;"/>
	</clipPath>
	<g style="clip-path:url(#SVGID_00000170276292989937804680000015899992953094483845_);">
		<path d="M12.6,5.8H9.7c-1,0-2,0.4-2.8,1.1C6.2,7.6,5.8,8.6,5.8,9.7v2.9c0,1,0.4,2,1.1,2.8c0.7,0.7,1.7,1.1,2.8,1.1h2.9
			c1,0,2-0.4,2.8-1.1c0.7-0.7,1.1-1.7,1.1-2.8V9.7c0-1-0.4-2-1.1-2.8C14.6,6.2,13.6,5.8,12.6,5.8L12.6,5.8z M14.6,12.6
			c0,0.5-0.2,1-0.6,1.4s-0.9,0.6-1.4,0.6H9.7c-0.5,0-1-0.2-1.4-0.6c-0.4-0.4-0.6-0.9-0.6-1.4V9.7c0-0.5,0.2-1,0.6-1.4
			c0.4-0.4,0.9-0.6,1.4-0.6h2.9c0.5,0,1,0.2,1.4,0.6c0.4,0.4,0.6,0.9,0.6,1.4V12.6z"/>
		<path d="M12.6,18.5H9.7c-1,0-2,0.4-2.8,1.1c-0.7,0.7-1.1,1.7-1.1,2.8v2.9c0,1,0.4,2,1.1,2.8c0.7,0.7,1.7,1.1,2.8,1.1h2.9
			c1,0,2-0.4,2.8-1.1c0.7-0.7,1.1-1.7,1.1-2.8v-2.9c0-1-0.4-2-1.1-2.8C14.6,18.9,13.6,18.5,12.6,18.5z M14.6,25.3
			c0,0.5-0.2,1-0.6,1.4s-0.9,0.6-1.4,0.6H9.7c-0.5,0-1-0.2-1.4-0.6c-0.4-0.4-0.6-0.9-0.6-1.4v-2.9c0-0.5,0.2-1,0.6-1.4
			c0.4-0.4,0.9-0.6,1.4-0.6h2.9c0.5,0,1,0.2,1.4,0.6c0.4,0.4,0.6,0.9,0.6,1.4V25.3z"/>
		<path d="M27.6,24.4l-2.2,2.2V8.3l2.2,2.2c0.1,0.1,0.2,0.2,0.3,0.2c0.1,0,0.2,0.1,0.4,0.1c0.1,0,0.3,0,0.4-0.1
			c0.1,0,0.2-0.1,0.3-0.2c0.1-0.1,0.2-0.2,0.2-0.3c0-0.1,0.1-0.2,0.1-0.4c0-0.1,0-0.3-0.1-0.4c0-0.1-0.1-0.2-0.2-0.3l-2.5-2.5
			c-0.6-0.5-1.3-0.9-2.1-0.9c-0.8,0-1.5,0.3-2.1,0.9l-2.5,2.5c-0.1,0.1-0.2,0.2-0.2,0.3c0,0.1-0.1,0.2-0.1,0.4c0,0.1,0,0.3,0.1,0.4
			c0,0.1,0.1,0.2,0.2,0.3c0.1,0.1,0.2,0.2,0.3,0.2c0.1,0,0.2,0.1,0.4,0.1c0.1,0,0.3,0,0.4-0.1c0.1,0,0.2-0.1,0.3-0.2l2.2-2.2v18.3
			l-2.2-2.2c-0.1-0.1-0.2-0.2-0.3-0.2c-0.1,0-0.2-0.1-0.4-0.1c-0.1,0-0.3,0-0.4,0.1c-0.1,0-0.2,0.1-0.3,0.2
			c-0.1,0.1-0.2,0.2-0.2,0.3c0,0.1-0.1,0.2-0.1,0.4c0,0.1,0,0.3,0.1,0.4c0,0.1,0.1,0.2,0.2,0.3l2.5,2.5c0.6,0.5,1.3,0.9,2.1,0.9
			c0.8,0,1.5-0.3,2.1-0.9l2.5-2.5c0.1-0.1,0.2-0.2,0.2-0.3c0-0.1,0.1-0.2,0.1-0.4c0-0.1,0-0.3-0.1-0.4c0-0.1-0.1-0.2-0.2-0.3
			c-0.1-0.1-0.2-0.2-0.3-0.2c-0.1,0-0.2-0.1-0.4-0.1c-0.1,0-0.3,0-0.4,0.1C27.8,24.2,27.7,24.3,27.6,24.4z"/>
	</g>
</g>
</svg>
